Genre:Drama | Mystery | Romance
Language:English  http://www.imdb.com/title/tt1092634/
Source:1080p.BluRay.x264-aBD
Subtitles:Romana


Format : Matroska
File size : 1.95 GiB
Duration : 1h 44mn
Overall bit rate : 2 670 Kbps


Video
Format settings, CABAC : Yes
Format settings, ReFrames : 4 frames
Codec ID : V_MPEG4/ISO/AVC
Duration : 1h 44mn
Bit rate : 2 233 Kbps
Nominal bit rate : 2 400 Kbps
Width : 1 280 pixels
Height : 720 pixels
Display aspect ratio : 16:9
Frame rate mode : Variable
Frame rate : 23.976 fps
Color space : YUV
Chroma subsampling : 4:2:0
Bit depth : 8 bits
Scan type : Progressive
Bits/(Pixel*Frame) : 0.101
Stream size : 1.63 GiB (84%)
Writing library : x264


Audio
ID : 2
Format : AC-3
Format/Info : Audio Coding 3
Mode extension : CM (complete main)
Codec ID : A_AC3
Duration : 1h 44mn
Bit rate mode : Constant
Bit rate : 384 Kbps
Channel(s) : 6 channels
Channel positions : Front: L C R, Side: L R, LFE
Sampling rate : 48.0 KHz
Bit depth : 16 bits
Video delay : -1mn 5s
Stream size : 287 MiB (14%)
Language : English


Plot:
A '40s period piece which revolves around an American expat who returns to Shanghai in the months before Pearl Harbor due to the death of his friend
 
http://shareimage.org/images/hi3nbzfurvjosd4mc3wm.png 
http://shareimage.org/images/z3o4878gfswhlznvbkls.png 
http://shareimage.org/images/z2x6702pyjx4sejxdih.png 
http://shareimage.org/images/9eciq85vfnk55m40txek.png